PathFileType	4	(X/Y/Z)	4_coords_data.trc
DataRate	CameraRate	NumFrames	NumMarkers	Units	OrigDataRate	OrigDataStartFrame	OrigNumFrames
30.0	30.0	5	21	m	30.0	29	57
Frame#	Time	THUMB_TIP	THUMB_IP	THUMB_MCP	THUMB_CMC	INDEX_TIP	INDEX_DIP	INDEX_PIP	INDEX_MCP	MIDDLE_TIP	MIDDLE_DIP	MIDDLE_PIP	MIDDLE_MCP	RING_TIP	RING_DIP	RING_PIP	RING_MCP	PINKY_TIP	PINKY_DIP	PINKY_PIP	PINKY_MCP	WRIST
X1	Y1	Z1	X2	Y2	Z2	X3	Y3	Z3	X4	Y4	Z4	X5	Y5	Z5	X6	Y6	Z6	X7	Y7	Z7	X8	Y8	Z8	X9	Y9	Z9	X10	Y10	Z10	X11	Y11	Z11	X12	Y12	Z12	X13	Y13	Z13	X14	Y14	Z14	X15	Y15	Z15	X16	Y16	Z16	X17	Y17	Z17	X18	Y18	Z18	X19	Y19	Z19	X20	Y20	Z20	X21	Y21	Z21
28	0.9333333333333333	-0.022279699325561522	-0.12152200317382812	1.046010009765625	-0.03567570114135742	-0.09787100219726562	1.0551800537109375	-0.06120380020141602	-0.08676080322265625	1.0744100341796874	-0.07374569702148437	-0.050406501770019534	1.0864599609375	-0.00505063009262085	-0.07929319763183594	0.9614240112304687	-0.02231369972229004	-0.07656620025634765	0.9774439697265624	-0.03961750030517578	-0.07260849761962891	0.99627099609375	-0.0709188003540039	-0.06613369750976562	1.02522998046875	-0.018867500305175783	-0.03673910140991211	0.9313759765625	-0.03107889938354492	-0.03796749877929687	0.9555269775390625	-0.046557498931884767	-0.03940019989013672	0.9827329711914062	-0.07362100219726563	-0.04048329925537109	1.0175399780273438	-0.024244699478149414	0.005805930137634277	0.9368400268554687	-0.03530810165405274	0.000550652027130127	0.9601580200195312	-0.048284698486328125	-0.006032639980316162	0.9855969848632813	-0.07222139739990234	-0.015996700286865236	1.0201699829101563	-0.030469499588012695	0.0503473014831543	0.980114990234375	-0.043309501647949215	0.03903390121459961	0.9932550048828125	-0.05535609817504883	0.02697130012512207	1.0056699829101563	-0.07142050170898437	0.006727700233459473	1.0261800537109376	-0.10490499877929688	-0.02218090057373047	1.1029300537109374
29	0.9666666666666667	-0.014404899597167968	-0.11554199981689453	1.0468199462890626	-0.030467399597167967	-0.09327220153808594	1.055800048828125	-0.0566161003112793	-0.08460369873046875	1.0755699462890624	-0.07209210205078125	-0.049685798645019534	1.086739990234375	-0.002039530038833618	-0.07462059783935547	0.9652639770507813	-0.019965099334716796	-0.07338980102539062	0.9808880004882813	-0.038560100555419925	-0.07114330291748047	0.9989929809570313	-0.07197699737548828	-0.06738459777832032	1.0260999755859375	-0.013944600105285644	-0.03844850158691406	0.9364819946289062	-0.02764500045776367	-0.039658699035644535	0.9594320068359375	-0.04531990051269531	-0.04098500061035156	0.985468994140625	-0.07525420379638671	-0.042008800506591795	1.0183699951171874	-0.01970050048828125	0.002276060104370117	0.9403560180664062	-0.032263599395751956	-0.002324170112609863	0.9628319702148438	-0.04736520004272461	-0.008220009803771973	0.987343017578125	-0.07483209991455078	-0.017297399520874022	1.02075	-0.030025400161743165	0.045550899505615236	0.9792999877929688	-0.043507301330566406	0.03530139923095703	0.9925230102539062	-0.056381500244140625	0.024182199478149414	1.0051099853515626	-0.07407230377197266	0.005698659896850586	1.025760009765625	-0.1047959976196289	-0.022541500091552733	1.1030400390625
30	1.0	-0.004019400119781494	-0.10444999694824218	1.0466400146484376	-0.023268800735473633	-0.0845155029296875	1.0559000244140626	-0.050018600463867184	-0.07866709899902344	1.076469970703125	-0.06882350158691407	-0.04650899887084961	1.0866300048828126	-6.4016796648502e-05	-0.06913529968261718	0.9692269897460938	-0.018437799453735353	-0.06975669860839843	0.9843829956054687	-0.03805429840087891	-0.06950430297851562	1.0018400268554688	-0.07316780090332031	-0.06883999633789062	1.0273599853515625	-0.008816229820251464	-0.03911370086669922	0.9429359741210938	-0.024117900848388673	-0.04059310150146484	0.9643740234375	-0.044108501434326174	-0.04222370147705078	0.9887059936523438	-0.07666010284423828	-0.043615299224853514	1.0191099853515626	-0.014214799880981446	-1.1038499884307001e-05	0.9455830078125	-0.028745199203491213	-0.004373089790344238	0.9668209838867188	-0.04614059829711914	-0.010018500328063965	0.9899749755859375	-0.07654049682617188	-0.01879669952392578	1.02122998046875	-0.02736429977416992	0.040408199310302734	0.9809089965820312	-0.04206800079345703	0.03123740005493164	0.9936610107421875	-0.05633940124511719	0.021246700286865233	1.0058599853515624	-0.0769259033203125	0.004359189987182617	1.0261199951171875	-0.10407499694824218	-0.02297200012207031	1.103239990234375
31	1.0333333333333334	0.004421730041503907	-0.08984750366210938	1.0446300048828125	-0.017384300231933592	-0.07308619689941406	1.05527001953125	-0.043839500427246096	-0.07077870178222656	1.076800048828125	-0.0657113037109375	-0.04222370147705078	1.0869300537109374	0.001778710007667541	-0.06498970031738281	0.9736690063476563	-0.016934499740600586	-0.06718199920654297	0.9879710083007812	-0.037337100982666016	-0.06856680297851563	1.0046900024414063	-0.07324949645996094	-0.07022940063476563	1.0298299560546875	-0.004561399936676026	-0.03927989959716797	0.9491129760742187	-0.021237199783325195	-0.041212200164794925	0.96910498046875	-0.043076400756835935	-0.04338410186767578	0.9918699951171875	-0.07767769622802734	-0.04557339859008789	1.021030029296875	-0.009031749725341797	-0.0010598000288009638	0.9515910034179688	-0.02552370071411133	-0.005627620220184326	0.9709600219726563	-0.04519049835205078	-0.011484100341796874	0.9923889770507812	-0.07744219970703126	-0.020384599685668945	1.0221500244140624	-0.024173599243164062	0.034837100982666014	0.9837319946289063	-0.0400791015625	0.02691659927368164	0.995416015625	-0.05589540100097656	0.018122299194335938	1.0069000244140625	-0.07886540222167969	0.002908440113067627	1.026489990234375	-0.10314299774169922	-0.022937799453735353	1.104489990234375
32	1.0666666666666667	0.008363510131835937	-0.07783290100097656	1.04181005859375	-0.015076499938964844	-0.06454429626464844	1.0540899658203124	-0.04054669952392578	-0.06546880340576172	1.077010009765625	-0.06358219909667968	-0.03884930038452149	1.08802001953125	0.003149630069732666	-0.06160810089111328	0.9777119750976563	-0.015910499572753905	-0.06511589813232421	0.9912410278320313	-0.036744400024414064	-0.0678114013671875	1.00727001953125	-0.07284739685058594	-0.07113909912109374	1.0322900390625	-0.001095229983329773	-0.03829219818115234	0.9551929931640625	-0.019013500213623045	-0.040898799896240234	0.9735960083007813	-0.04250479888916016	-0.043803699493408205	0.9948989868164062	-0.07840670013427735	-0.04698310089111328	1.0231799926757812	-0.0056993098258972166	-0.0008958460092544551	0.9569089965820312	-0.0237268009185791	-0.005869599819183349	0.9744910278320312	-0.045097801208496095	-0.012209600448608398	0.9944119873046875	-0.07832460021972656	-0.021590599060058592	1.02377001953125	-0.022067300796508788	0.03078160095214844	0.9865089721679687	-0.039011199951171874	0.023893999099731444	0.99722900390625	-0.05596009826660156	0.015988200187683106	1.0080999755859374	-0.07954139709472656	0.0018502500057220462	1.02752001953125	-0.101552001953125	-0.022524999618530273	1.107010009765625
